<svg width="191" height="191" viewBox="0 0 191 191" fill="none" xmlns="http://www.w3.org/2000/svg">
<circle cx="95.5" cy="95.5" r="95.5" fill="black"/>
<path d="M44.7112 100.672C44.7112 114.647 54.055 122.973 62.2009 122.973C70.8082 122.973 80.9841 114.129 80.9841 100.672H96.4985C96.4985 121.475 80.5504 138.488 62.2009 138.488C43.3902 138.488 29.1968 120.957 29.1968 100.672H44.7112Z" fill="#F6F6F4"/>
<path d="M80.9836 90.3286C80.9836 76.353 71.6398 68.0267 63.4939 68.0266C54.8866 68.0266 44.7107 76.8707 44.7107 90.3285L29.1963 90.3285C29.1963 69.5253 45.1444 52.5121 63.4939 52.5121C82.3046 52.5123 96.498 70.0433 96.498 90.3286L80.9836 90.3286Z" fill="#F6F6F4"/>
<path d="M127.85 92.5911C109.397 92.5911 93.5528 74.818 93.5528 54.7747L109.067 54.7747C109.067 67.6995 119.347 77.0766 127.85 77.0766C136.405 77.0765 146.633 67.966 146.633 54.7747L162.147 54.7747C162.147 75.1977 146.252 92.5909 127.85 92.5911Z" fill="#F6F6F4"/>
<path d="M146.633 136.549C146.633 123.091 136.458 114.247 127.85 114.247C119.243 114.247 109.067 123.091 109.067 136.549L93.5528 136.549C93.5528 115.745 109.501 98.7322 127.85 98.7322C146.2 98.7323 162.147 115.745 162.147 136.549L146.633 136.549Z" fill="#F6F6F4"/>
</svg>
